<svg xmlns="http://www.w3.org/2000/svg" viewBox="0 0 512 512">
<path d="M 206,491 205,492 204,492 205,492 206,491 207,491 Z" fill="black" />
<path d="M 201,490 202,490 Z" fill="black" />
<path d="M 207,488 206,489 205,489 206,489 Z" fill="black" />
<path d="M 330,483 331,483 Z" fill="black" />
<path d="M 331,481 333,481 Z" fill="black" />
<path d="M 301,480 300,481 Z" fill="black" />
<path d="M 203,474 203,475 204,474 Z" fill="black" />
<path d="M 336,469 337,470 337,471 337,470 Z" fill="black" />
<path d="M 285,468 287,468 Z" fill="black" />
<path d="M 340,467 341,467 Z" fill="black" />
<path d="M 286,466 287,466 Z" fill="black" />
<path d="M 287,461 286,462 286,463 286,462 Z" fill="black" />
<path d="M 248,458 248,459 Z" fill="black" />
<path d="M 221,456 221,457 Z" fill="black" />
<path d="M 286,450 286,454 Z" fill="black" />
<path d="M 137,450 138,450 Z" fill="black" />
<path d="M 133,449 134,449 Z" fill="black" />
<path d="M 242,444 243,444 Z" fill="black" />
<path d="M 145,443 146,443 147,444 147,445 147,444 146,443 Z" fill="black" />
<path d="M 116,442 116,443 117,443 Z" fill="black" />
<path d="M 118,440 119,441 119,442 119,441 Z" fill="black" />
<path d="M 295,438 294,439 293,439 294,439 Z" fill="black" />
<path d="M 242,437 242,438 243,439 243,438 Z" fill="black" />
<path d="M 241,434 242,435 Z" fill="black" />
<path d="M 294,432 294,433 Z" fill="black" />
<path d="M 116,429 116,430 117,431 117,430 Z" fill="black" />
<path d="M 114,427 114,428 115,427 Z" fill="black" />
<path d="M 240,426 240,427 Z" fill="black" />
<path d="M 152,425 152,426 Z" fill="black" />
<path d="M 118,425 118,427 Z" fill="black" />
<path d="M 240,422 241,423 241,424 241,423 Z" fill="black" />
<path d="M 144,421 145,421 146,422 146,423 147,423 145,421 Z" fill="black" />
<path d="M 222,419 221,420 218,420 221,420 222,419 223,419 Z" fill="black" />
<path d="M 183,419 182,420 181,420 182,420 Z" fill="black" />
<path d="M 208,418 209,418 Z" fill="black" />
<path d="M 178,418 180,418 Z" fill="black" />
<path d="M 215,417 216,418 220,418 217,418 216,417 Z" fill="black" />
<path d="M 172,417 174,417 Z" fill="black" />
<path d="M 212,416 213,416 Z" fill="black" />
<path d="M 178,416 179,416 Z" fill="black" />
<path d="M 170,416 170,417 Z" fill="black" />
<path d="M 162,413 163,413 Z" fill="black" />
<path d="M 118,413 118,414 Z" fill="black" />
<path d="M 165,412 165,414 Z" fill="black" />
<path d="M 161,410 162,410 Z" fill="black" />
<path d="M 118,410 119,411 Z" fill="black" />
<path d="M 255,409 256,409 Z" fill="black" />
<path d="M 248,409 248,410 Z" fill="black" />
<path d="M 165,409 166,409 Z" fill="black" />
<path d="M 258,408 259,408 Z" fill="black" />
<path d="M 250,408 251,408 Z" fill="black" />
<path d="M 212,406 215,406 Z" fill="black" />
<path d="M 195,406 196,406 Z" fill="black" />
<path d="M 206,405 207,405 Z" fill="black" />
<path d="M 191,405 191,406 Z" fill="black" />
<path d="M 119,405 118,406 Z" fill="black" />
<path d="M 116,405 116,406 Z" fill="black" />
<path d="M 212,404 215,404 Z" fill="black" />
<path d="M 206,403 207,403 Z" fill="black" />
<path d="M 188,403 187,404 186,404 187,404 Z" fill="black" />
<path d="M 281,400 280,401 Z" fill="black" />
<path d="M 115,400 115,401 Z" fill="black" />
<path d="M 254,398 255,398 Z" fill="black" />
<path d="M 173,398 172,399 173,398 174,398 Z" fill="black" />
<path d="M 246,397 245,398 244,398 245,398 246,397 247,397 248,398 247,399 248,398 249,398 250,399 249,398 248,398 247,397 Z" fill="black" />
<path d="M 168,397 169,398 Z" fill="black" />
<path d="M 254,396 255,396 Z" fill="black" />
<path d="M 250,395 252,395 Z" fill="black" />
<path d="M 168,394 169,395 Z" fill="black" />
<path d="M 156,393 156,394 Z" fill="black" />
<path d="M 312,392 313,393 313,394 312,395 313,394 313,393 Z" fill="black" />
<path d="M 158,392 158,393 Z" fill="black" />
<path d="M 273,391 274,391 Z" fill="black" />
<path d="M 275,389 276,389 Z" fill="black" />
<path d="M 272,389 271,390 272,389 273,389 Z" fill="black" />
<path d="M 278,388 279,388 Z" fill="black" />
<path d="M 281,387 282,387 Z" fill="black" />
<path d="M 156,386 157,387 157,389 157,387 Z" fill="black" />
<path d="M 301,383 302,383 Z" fill="black" />
<path d="M 118,383 119,384 118,385 118,386 118,385 119,384 Z" fill="black" />
<path d="M 337,381 337,383 338,384 337,383 Z" fill="black" />
<path d="M 299,381 298,382 299,382 Z" fill="black" />
<path d="M 162,381 162,382 163,383 162,384 163,383 164,384 162,382 Z" fill="black" />
<path d="M 302,379 302,380 301,381 302,381 303,380 303,379 Z" fill="black" />
<path d="M 156,378 156,379 158,381 158,380 157,380 156,379 Z" fill="black" />
<path d="M 128,375 129,376 Z" fill="black" />
<path d="M 162,374 162,376 163,376 162,375 Z" fill="black" />
<path d="M 155,373 155,375 Z" fill="black" />
<path d="M 327,369 327,370 Z" fill="black" />
<path d="M 154,369 154,371 Z" fill="black" />
<path d="M 157,368 157,369 Z" fill="black" />
<path d="M 126,367 127,367 129,369 129,370 128,371 128,372 129,373 130,373 130,372 129,373 128,372 128,371 129,370 130,370 130,369 129,369 128,368 128,367 Z" fill="black" />
<path d="M 161,366 161,369 Z" fill="black" />
<path d="M 130,366 130,367 Z" fill="black" />
<path d="M 126,365 127,365 Z" fill="black" />
<path d="M 125,363 124,364 125,363 126,363 Z" fill="black" />
<path d="M 131,361 131,362 Z" fill="black" />
<path d="M 161,359 161,360 Z" fill="black" />
<path d="M 133,351 134,351 Z" fill="black" />
<path d="M 160,350 160,352 Z" fill="black" />
<path d="M 131,350 131,351 Z" fill="black" />
<path d="M 138,349 138,350 Z" fill="black" />
<path d="M 141,347 140,348 140,350 140,348 Z" fill="black" />
<path d="M 149,344 150,345 Z" fill="black" />
<path d="M 339,341 339,342 340,343 339,342 Z" fill="black" />
<path d="M 337,338 337,339 Z" fill="black" />
<path d="M 336,333 335,334 335,335 337,335 338,336 339,336 340,337 340,338 340,337 339,336 338,336 337,335 336,335 335,334 Z" fill="black" />
<path d="M 153,332 153,333 Z" fill="black" />
<path d="M 337,330 337,331 Z" fill="black" />
<path d="M 342,329 344,329 Z" fill="black" />
<path d="M 152,329 152,330 Z" fill="black" />
<path d="M 347,328 347,329 Z" fill="black" />
<path d="M 338,328 339,328 340,329 340,332 340,329 339,328 Z" fill="black" />
<path d="M 333,327 334,328 Z" fill="black" />
<path d="M 154,327 154,328 Z" fill="black" />
<path d="M 334,324 334,325 Z" fill="black" />
<path d="M 358,323 359,323 Z" fill="black" />
<path d="M 377,320 376,321 377,322 376,323 377,322 376,321 377,320 378,320 379,321 380,320 379,321 378,320 Z" fill="black" />
<path d="M 372,317 371,318 370,318 371,318 372,319 373,319 374,318 375,319 374,318 375,317 374,318 373,317 Z" fill="black" />
<path d="M 336,317 335,318 336,319 337,318 Z" fill="black" />
<path d="M 149,306 149,307 Z" fill="black" />
<path d="M 332,304 331,305 331,306 330,307 330,308 330,307 331,306 331,305 Z" fill="black" />
<path d="M 229,304 228,305 Z" fill="black" />
<path d="M 146,303 146,307 146,304 147,303 Z" fill="black" />
<path d="M 142,302 142,304 Z" fill="black" />
<path d="M 233,300 233,301 Z" fill="black" />
<path d="M 140,300 140,301 Z" fill="black" />
<path d="M 393,299 392,300 391,300 392,300 Z" fill="black" />
<path d="M 389,296 389,299 388,300 389,301 389,302 390,302 388,300 389,299 Z" fill="black" />
<path d="M 238,296 237,297 238,297 Z" fill="black" />
<path d="M 141,296 141,297 142,298 142,300 142,298 141,297 Z" fill="black" />
<path d="M 231,293 231,294 Z" fill="black" />
<path d="M 144,293 144,295 143,296 144,297 143,296 144,295 Z" fill="black" />
<path d="M 272,292 272,293 Z" fill="black" />
<path d="M 254,292 255,292 Z" fill="black" />
<path d="M 400,291 400,292 Z" fill="black" />
<path d="M 332,291 332,292 Z" fill="black" />
<path d="M 244,291 245,292 248,292 248,291 Z" fill="black" />
<path d="M 330,289 330,290 Z" fill="black" />
<path d="M 272,288 272,289 273,288 274,288 275,289 274,290 275,289 277,289 277,288 Z" fill="black" />
<path d="M 245,288 247,288 248,289 248,288 Z" fill="black" />
<path d="M 135,287 135,288 Z" fill="black" />
<path d="M 328,286 329,287 328,288 329,287 Z" fill="black" />
<path d="M 238,286 238,287 Z" fill="black" />
<path d="M 236,285 235,286 236,287 Z" fill="black" />
<path d="M 139,285 139,286 Z" fill="black" />
<path d="M 281,283 281,286 Z" fill="black" />
<path d="M 328,281 329,281 Z" fill="black" />
<path d="M 297,280 298,280 Z" fill="black" />
<path d="M 140,280 140,282 Z" fill="black" />
<path d="M 289,278 289,279 287,281 285,281 287,281 288,282 291,282 292,281 293,282 294,281 295,282 296,282 295,281 294,281 293,280 292,281 291,281 290,282 288,282 287,281 290,278 Z" fill="black" />
<path d="M 322,276 323,277 323,279 323,277 Z" fill="black" />
<path d="M 132,273 133,274 Z" fill="black" />
<path d="M 326,272 326,273 325,274 325,279 325,274 326,273 Z" fill="black" />
<path d="M 134,272 135,273 135,274 135,273 Z" fill="black" />
<path d="M 136,271 138,273 138,277 138,273 Z" fill="black" />
<path d="M 398,267 398,268 Z" fill="black" />
<path d="M 345,264 346,265 344,267 345,268 344,269 345,268 346,268 345,268 344,267 346,265 Z" fill="black" />
<path d="M 321,262 322,262 Z" fill="black" />
<path d="M 286,262 285,263 Z" fill="black" />
<path d="M 257,262 258,262 Z" fill="black" />
<path d="M 333,261 332,262 331,262 332,262 Z" fill="black" />
<path d="M 254,261 255,261 Z" fill="black" />
<path d="M 131,261 132,262 Z" fill="black" />
<path d="M 323,260 324,260 Z" fill="black" />
<path d="M 263,260 264,261 266,261 264,261 Z" fill="black" />
<path d="M 259,260 260,260 Z" fill="black" />
<path d="M 100,257 101,257 Z" fill="black" />
<path d="M 321,256 321,258 Z" fill="black" />
<path d="M 299,254 300,255 301,255 301,254 Z" fill="black" />
<path d="M 128,252 128,253 129,254 129,258 129,254 128,253 Z" fill="black" />
<path d="M 302,250 302,251 303,251 303,250 Z" fill="black" />
<path d="M 84,248 84,249 85,248 86,249 87,249 86,249 85,248 Z" fill="black" />
<path d="M 129,245 129,246 Z" fill="black" />
<path d="M 118,245 117,246 118,246 Z" fill="black" />
<path d="M 126,238 126,239 127,240 126,239 Z" fill="black" />
<path d="M 315,236 315,237 Z" fill="black" />
<path d="M 311,235 312,236 312,235 Z" fill="black" />
<path d="M 81,234 81,236 Z" fill="black" />
<path d="M 312,231 311,232 312,231 313,232 313,233 314,234 313,233 313,232 Z" fill="black" />
<path d="M 80,231 80,232 Z" fill="black" />
<path d="M 308,228 308,229 Z" fill="black" />
<path d="M 310,226 310,227 Z" fill="black" />
<path d="M 127,221 127,222 Z" fill="black" />
<path d="M 80,220 80,221 Z" fill="black" />
<path d="M 78,220 77,221 78,221 Z" fill="black" />
<path d="M 146,219 147,219 Z" fill="black" />
<path d="M 315,218 315,220 Z" fill="black" />
<path d="M 144,218 144,219 Z" fill="black" />
<path d="M 136,218 136,219 Z" fill="black" />
<path d="M 312,217 313,218 313,219 313,218 Z" fill="black" />
<path d="M 318,216 317,217 Z" fill="black" />
<path d="M 314,216 315,216 Z" fill="black" />
<path d="M 185,216 185,217 Z" fill="black" />
<path d="M 81,216 81,217 Z" fill="black" />
<path d="M 147,215 146,216 147,217 149,217 150,216 149,217 147,217 146,216 147,215 148,215 Z" fill="black" />
<path d="M 141,215 142,215 Z" fill="black" />
<path d="M 303,214 302,215 301,215 301,216 302,216 303,217 303,218 303,217 302,216 302,215 Z" fill="black" />
<path d="M 295,214 297,214 Z" fill="black" />
<path d="M 138,214 139,214 Z" fill="black" />
<path d="M 300,212 300,213 301,212 Z" fill="black" />
<path d="M 145,211 146,212 Z" fill="black" />
<path d="M 148,209 148,210 149,210 149,209 Z" fill="black" />
<path d="M 79,209 79,210 Z" fill="black" />
<path d="M 302,208 302,210 303,210 303,209 Z" fill="black" />
<path d="M 151,207 151,208 152,209 151,208 Z" fill="black" />
<path d="M 322,206 321,207 321,208 320,209 321,208 321,207 Z" fill="black" />
<path d="M 302,206 304,206 305,207 304,206 Z" fill="black" />
<path d="M 76,206 77,206 78,207 76,209 78,207 78,206 Z" fill="black" />
<path d="M 308,205 309,206 308,207 307,207 308,207 309,206 309,205 Z" fill="black" />
<path d="M 195,204 195,205 Z" fill="black" />
<path d="M 189,204 189,205 Z" fill="black" />
<path d="M 322,203 320,205 Z" fill="black" />
<path d="M 73,201 73,203 74,203 73,202 Z" fill="black" />
<path d="M 322,200 320,202 321,201 322,201 Z" fill="black" />
<path d="M 298,198 298,199 Z" fill="black" />
<path d="M 192,197 193,197 Z" fill="black" />
<path d="M 324,196 325,196 Z" fill="black" />
<path d="M 301,196 301,199 Z" fill="black" />
<path d="M 197,195 196,196 196,197 197,197 Z" fill="black" />
<path d="M 297,194 297,196 Z" fill="black" />
<path d="M 294,191 294,192 Z" fill="black" />
<path d="M 295,188 295,189 296,188 Z" fill="black" />
<path d="M 293,188 293,189 Z" fill="black" />
<path d="M 291,184 292,184 Z" fill="black" />
<path d="M 195,184 195,187 Z" fill="black" />
<path d="M 192,182 193,182 Z" fill="black" />
<path d="M 67,182 67,183 Z" fill="black" />
<path d="M 181,177 183,179 Z" fill="black" />
<path d="M 187,175 188,175 Z" fill="black" />
<path d="M 183,174 184,174 Z" fill="black" />
<path d="M 189,173 190,173 Z" fill="black" />
<path d="M 193,172 193,174 Z" fill="black" />
<path d="M 185,171 186,171 Z" fill="black" />
<path d="M 285,167 284,168 285,167 286,168 Z" fill="black" />
<path d="M 202,166 202,167 Z" fill="black" />
<path d="M 195,166 194,167 194,168 195,168 194,167 Z" fill="black" />
<path d="M 69,166 69,167 Z" fill="black" />
<path d="M 200,165 198,167 198,168 198,167 Z" fill="black" />
<path d="M 76,163 75,164 Z" fill="black" />
<path d="M 203,162 203,163 Z" fill="black" />
<path d="M 285,160 284,161 284,163 284,161 Z" fill="black" />
<path d="M 199,160 198,161 199,160 200,161 201,161 201,160 200,161 Z" fill="black" />
<path d="M 203,159 203,160 204,160 Z" fill="black" />
<path d="M 80,158 81,158 Z" fill="black" />
<path d="M 75,158 75,160 75,159 76,158 Z" fill="black" />
<path d="M 71,158 70,159 Z" fill="black" />
<path d="M 273,156 274,156 275,157 274,156 Z" fill="black" />
<path d="M 202,156 201,157 Z" fill="black" />
<path d="M 83,156 83,157 84,156 Z" fill="black" />
<path d="M 73,155 74,155 Z" fill="black" />
<path d="M 289,154 289,155 288,156 289,155 Z" fill="black" />
<path d="M 269,154 270,154 Z" fill="black" />
<path d="M 207,154 207,155 208,156 207,155 Z" fill="black" />
<path d="M 277,153 277,154 Z" fill="black" />
<path d="M 273,153 274,153 Z" fill="black" />
<path d="M 266,153 267,153 Z" fill="black" />
<path d="M 80,153 81,153 Z" fill="black" />
<path d="M 107,152 108,152 Z" fill="black" />
<path d="M 96,152 95,153 Z" fill="black" />
<path d="M 88,152 89,153 91,153 89,153 Z" fill="black" />
<path d="M 290,151 290,152 291,153 293,153 294,152 293,153 291,153 290,152 291,151 Z" fill="black" />
<path d="M 210,151 210,154 Z" fill="black" />
<path d="M 274,150 275,150 276,151 278,151 276,151 275,150 Z" fill="black" />
<path d="M 267,150 267,151 Z" fill="black" />
<path d="M 204,150 204,151 205,152 205,155 204,156 205,156 205,152 204,151 Z" fill="black" />
<path d="M 262,148 262,149 Z" fill="black" />
<path d="M 213,148 213,149 Z" fill="black" />
<path d="M 249,147 250,147 Z" fill="black" />
<path d="M 216,147 217,147 Z" fill="black" />
<path d="M 210,147 210,148 Z" fill="black" />
<path d="M 108,147 108,148 109,148 Z" fill="black" />
<path d="M 267,146 268,147 269,147 270,148 270,147 268,147 Z" fill="black" />
<path d="M 253,146 254,146 Z" fill="black" />
<path d="M 243,146 245,146 Z" fill="black" />
<path d="M 219,146 220,146 Z" fill="black" />
<path d="M 208,146 208,147 Z" fill="black" />
<path d="M 206,146 206,147 Z" fill="black" />
<path d="M 255,144 256,144 257,145 257,146 259,144 258,145 257,145 256,144 Z" fill="black" />
<path d="M 223,144 224,145 226,145 224,145 Z" fill="black" />
<path d="M 215,144 215,145 Z" fill="black" />
<path d="M 211,144 211,145 212,145 Z" fill="black" />
<path d="M 106,144 106,145 Z" fill="black" />
<path d="M 249,143 250,143 251,144 252,144 251,144 250,143 Z" fill="black" />
<path d="M 254,142 255,142 Z" fill="black" />
<path d="M 225,142 227,142 Z" fill="black" />
<path d="M 100,142 100,143 Z" fill="black" />
<path d="M 248,141 247,142 248,141 250,141 Z" fill="black" />
<path d="M 216,141 217,141 Z" fill="black" />
<path d="M 251,139 253,139 Z" fill="black" />
<path d="M 107,138 107,139 106,140 106,141 106,140 107,139 Z" fill="black" />
<path d="M 103,137 103,138 Z" fill="black" />
<path d="M 206,135 206,136 207,137 207,138 206,139 206,140 205,141 205,142 205,141 206,140 207,141 207,142 207,141 206,140 206,139 207,138 207,137 206,136 Z" fill="black" />
<path d="M 101,135 101,136 102,135 Z" fill="black" />
<path d="M 308,134 308,135 Z" fill="black" />
<path d="M 263,134 262,135 Z" fill="black" />
<path d="M 105,134 105,137 Z" fill="black" />
<path d="M 99,133 99,135 Z" fill="black" />
<path d="M 314,132 313,133 312,133 313,134 312,135 313,134 313,133 Z" fill="black" />
<path d="M 309,128 309,131 Z" fill="black" />
<path d="M 313,126 312,127 312,128 311,129 312,130 313,130 312,130 311,129 312,128 312,127 313,126 314,126 315,127 314,128 315,129 315,127 314,126 Z" fill="black" />
<path d="M 105,124 105,127 Z" fill="black" />
<path d="M 313,123 312,124 313,124 Z" fill="black" />
<path d="M 310,123 310,124 Z" fill="black" />
<path d="M 109,123 108,124 108,127 108,125 109,124 Z" fill="black" />
<path d="M 107,119 107,120 Z" fill="black" />
<path d="M 110,118 110,120 Z" fill="black" />
<path d="M 113,116 113,117 Z" fill="black" />
<path d="M 325,114 325,115 Z" fill="black" />
<path d="M 109,114 109,115 108,116 110,114 Z" fill="black" />
<path d="M 320,112 321,112 Z" fill="black" />
<path d="M 310,112 310,114 Z" fill="black" />
<path d="M 308,112 308,114 Z" fill="black" />
<path d="M 111,112 112,112 113,113 112,112 Z" fill="black" />
<path d="M 327,110 328,111 328,112 327,113 325,111 324,111 323,112 323,113 322,114 320,114 320,115 321,114 323,114 323,112 324,111 325,112 326,112 327,113 328,112 329,113 328,112 328,111 Z" fill="black" />
<path d="M 319,110 322,110 Z" fill="black" />
<path d="M 314,110 313,111 314,110 316,110 Z" fill="black" />
<path d="M 153,109 153,110 Z" fill="black" />
<path d="M 149,109 150,109 Z" fill="black" />
<path d="M 333,108 334,108 Z" fill="black" />
<path d="M 142,107 143,107 Z" fill="black" />
<path d="M 115,107 114,108 Z" fill="black" />
<path d="M 149,106 151,106 Z" fill="black" />
<path d="M 123,106 127,106 128,107 129,107 128,107 127,106 Z" fill="black" />
<path d="M 335,105 336,105 Z" fill="black" />
<path d="M 141,105 142,105 Z" fill="black" />
<path d="M 135,105 136,106 137,106 136,106 Z" fill="black" />
<path d="M 138,104 139,104 Z" fill="black" />
<path d="M 120,104 120,105 Z" fill="black" />
<path d="M 334,102 334,103 Z" fill="black" />
<path d="M 337,101 338,101 Z" fill="black" />
<path d="M 131,101 132,101 Z" fill="black" />
<path d="M 133,98 134,99 134,98 Z" fill="black" />
<path d="M 131,98 130,99 131,99 Z" fill="black" />
<path d="M 337,96 335,98 336,99 337,99 336,99 335,98 Z" fill="black" />
<path d="M 333,96 333,98 Z" fill="black" />
<path d="M 151,92 152,93 152,94 153,95 152,96 153,95 152,94 152,93 Z" fill="black" />
<path d="M 153,90 153,91 154,92 154,93 154,92 153,91 Z" fill="black" />
<path d="M 149,89 149,91 Z" fill="black" />
<path d="M 334,88 334,89 Z" fill="black" />
<path d="M 332,88 332,91 Z" fill="black" />
<path d="M 150,85 150,86 Z" fill="black" />
<path d="M 336,84 336,85 Z" fill="black" />
<path d="M 334,82 334,84 Z" fill="black" />
<path d="M 330,82 331,83 331,85 331,83 Z" fill="black" />
<path d="M 156,82 156,83 Z" fill="black" />
<path d="M 159,79 160,79 Z" fill="black" />
<path d="M 153,79 151,81 152,81 153,82 153,83 152,84 151,83 150,83 151,83 152,84 154,82 154,81 155,80 154,80 Z" fill="black" />
<path d="M 164,74 163,75 162,75 161,76 161,77 Z" fill="black" />
<path d="M 321,73 322,73 Z" fill="black" />
<path d="M 160,72 161,73 160,74 159,74 158,73 157,73 158,73 159,74 160,74 161,73 162,73 161,73 Z" fill="black" />
<path d="M 308,71 309,72 Z" fill="black" />
<path d="M 325,70 326,70 Z" fill="black" />
<path d="M 161,70 162,71 Z" fill="black" />
<path d="M 166,68 167,69 Z" fill="black" />
<path d="M 310,58 310,61 Z" fill="black" />
<path d="M 316,53 317,53 Z" fill="black" />
<path d="M 309,50 309,51 310,52 309,51 Z" fill="black" />
<path d="M 313,49 315,51 312,54 312,55 312,54 313,53 314,54 314,52 315,51 315,50 314,49 Z" fill="black" />
<path d="M 315,47 316,48 Z" fill="black" />
<path d="M 256,47 257,48 Z" fill="black" />
<path d="M 312,45 313,46 312,47 313,46 Z" fill="black" />
<path d="M 185,45 185,46 Z" fill="black" />
<path d="M 184,42 184,43 Z" fill="black" />
<path d="M 309,40 310,41 Z" fill="black" />
<path d="M 302,40 302,41 Z" fill="black" />
<path d="M 308,37 308,38 307,39 308,38 Z" fill="black" />
<path d="M 186,36 185,37 185,40 186,41 186,43 186,41 185,40 185,37 Z" fill="black" />
<path d="M 254,35 255,36 255,37 255,36 Z" fill="black" />
<path d="M 303,34 304,35 304,36 305,37 305,38 304,39 305,38 305,37 306,36 306,35 306,36 305,37 304,36 304,35 Z" fill="black" />
<path d="M 272,34 273,34 Z" fill="black" />
<path d="M 289,33 291,33 Z" fill="black" />
<path d="M 251,33 252,34 252,33 Z" fill="black" />
<path d="M 188,33 189,33 Z" fill="black" />
<path d="M 289,30 289,31 Z" fill="black" />
<path d="M 270,30 269,31 270,30 271,31 272,31 271,31 Z" fill="black" />
<path d="M 294,29 294,31 Z" fill="black" />
<path d="M 274,29 275,29 Z" fill="black" />
<path d="M 286,27 288,27 Z" fill="black" />
<path d="M 246,27 247,28 Z" fill="black" />
<path d="M 243,26 244,26 Z" fill="black" />
<path d="M 251,24 251,25 254,28 252,26 252,25 Z" fill="black" />
<path d="M 243,23 242,24 Z" fill="black" />
<path d="M 199,23 199,24 200,25 199,26 195,26 199,26 200,25 199,24 Z" fill="black" />
<path d="M 248,22 249,23 247,25 246,25 247,25 249,23 Z" fill="black" />
<path d="M 221,21 220,22 214,22 213,23 210,23 209,24 207,24 206,25 205,24 206,25 205,26 204,26 202,24 203,25 199,29 198,28 199,29 197,31 196,31 195,32 195,33 194,34 192,32 193,31 193,30 193,31 192,32 191,31 193,33 193,34 194,35 190,39 190,40 189,41 188,40 188,38 190,36 189,37 188,37 188,40 189,41 189,42 188,43 188,44 187,45 187,49 186,50 186,51 185,52 186,53 186,54 185,55 185,56 186,57 186,61 185,62 186,63 185,64 186,65 186,70 187,71 187,75 188,76 188,80 186,82 185,81 185,79 183,77 183,76 180,73 181,72 182,72 183,71 182,72 181,72 180,73 179,72 179,71 178,70 176,72 174,72 172,74 170,74 169,75 166,72 167,73 167,74 166,75 166,77 165,78 164,77 162,79 162,81 161,82 160,81 161,82 160,83 159,83 156,86 156,89 157,90 156,91 156,94 155,95 155,96 154,97 155,98 155,107 156,108 156,109 155,110 157,112 156,113 157,114 157,115 156,116 155,116 154,115 153,116 152,115 152,114 151,113 150,113 148,111 147,111 146,110 145,110 144,109 141,109 140,108 132,108 131,109 127,109 125,111 124,111 123,110 123,109 122,110 123,110 124,111 123,112 121,112 119,114 119,115 118,116 117,116 116,115 116,114 116,115 117,116 116,117 116,118 114,120 114,121 113,122 112,121 113,122 113,123 111,125 111,126 110,127 110,129 109,130 109,134 108,135 109,136 109,144 110,145 110,146 111,147 111,148 112,149 112,150 113,151 111,153 110,153 111,153 112,152 114,154 113,155 114,155 115,156 114,157 111,157 110,156 107,156 106,155 100,155 99,154 98,154 97,155 92,155 91,156 89,156 87,154 86,154 87,154 89,156 88,157 86,157 84,159 83,159 76,166 76,167 74,169 74,171 73,172 72,171 73,172 73,174 72,175 72,177 71,178 71,179 70,180 70,181 71,182 71,183 70,184 70,185 72,187 72,190 73,191 73,193 74,194 74,195 75,196 75,197 77,199 76,200 75,200 76,201 76,203 78,201 79,201 80,202 79,203 79,204 80,204 81,203 82,204 82,205 81,206 81,207 83,205 84,205 85,206 84,207 85,206 86,206 88,208 89,208 90,209 89,210 89,211 91,211 92,212 92,213 91,214 90,214 89,213 88,213 89,213 90,214 89,215 89,216 85,220 84,219 84,217 83,216 84,217 84,219 85,220 85,221 82,224 82,225 83,226 83,233 84,234 84,236 82,238 83,238 84,239 83,238 83,237 84,236 86,238 86,241 88,241 89,242 89,244 91,244 92,245 94,245 95,246 96,246 97,247 99,247 100,248 107,248 108,247 110,247 111,246 113,246 114,245 115,245 117,243 118,243 121,240 121,239 122,238 124,240 123,241 123,242 121,244 124,241 124,240 123,239 123,236 124,235 124,232 125,231 126,232 126,233 126,232 125,231 125,225 126,224 125,223 124,223 123,222 123,221 124,220 125,220 126,219 126,217 125,216 126,217 126,219 125,220 123,220 122,219 123,218 123,216 123,217 122,218 120,216 121,215 120,214 120,213 121,212 122,212 123,213 126,213 127,214 128,213 136,213 137,212 139,212 140,211 141,211 142,210 143,210 144,209 145,209 148,206 149,206 153,202 154,203 154,204 154,203 153,202 155,200 155,199 156,198 159,201 159,202 158,203 157,203 156,202 156,204 157,203 158,204 158,206 157,207 157,208 156,209 155,208 154,208 153,207 153,206 153,207 154,208 155,208 156,209 156,210 155,211 154,211 155,211 156,212 156,213 157,213 158,214 160,214 161,215 162,215 163,216 167,216 168,217 169,216 170,216 171,215 174,215 176,213 177,213 178,212 179,212 182,215 179,212 180,211 182,211 183,212 181,210 182,209 183,209 183,208 184,207 184,206 185,205 185,204 186,203 187,204 186,203 186,201 187,200 188,201 188,200 189,199 190,200 191,199 190,200 189,199 188,200 187,199 187,191 188,190 188,188 188,189 187,190 186,189 186,187 187,186 187,184 187,185 186,186 185,185 185,184 184,184 183,183 183,182 176,175 176,173 177,172 179,172 180,171 182,171 184,169 185,169 186,168 187,168 188,169 188,170 191,170 192,169 191,168 192,169 191,170 189,170 188,169 188,167 189,166 190,166 191,165 192,166 192,165 193,164 193,163 194,162 195,162 197,164 195,162 195,161 199,157 199,156 200,155 200,154 202,152 202,148 204,146 203,145 204,144 203,143 203,137 202,136 203,135 204,135 203,135 202,136 201,135 201,134 200,133 200,132 199,131 199,130 198,129 198,127 199,126 202,129 201,130 202,129 203,130 204,130 205,131 206,131 207,132 206,133 205,133 206,133 207,132 208,132 209,133 210,133 211,134 211,135 213,135 215,137 216,136 217,137 219,137 220,138 219,139 217,139 219,139 220,138 224,138 225,139 224,140 222,140 226,140 227,139 230,139 231,140 232,139 243,139 244,138 245,139 246,139 247,138 249,138 250,137 251,137 252,136 253,136 254,135 256,135 257,134 258,135 259,135 258,135 257,134 258,133 261,133 261,132 262,131 265,131 266,130 266,127 267,126 268,127 267,126 268,125 268,124 269,123 270,124 271,123 272,124 272,125 271,126 271,129 270,130 269,129 268,129 269,129 270,130 270,132 269,133 268,132 267,132 267,133 266,134 266,135 266,134 268,132 269,133 269,134 268,135 268,136 267,137 266,137 266,138 267,139 267,142 266,143 265,142 265,140 265,142 264,143 265,142 266,143 267,143 268,142 269,143 269,144 270,145 271,145 272,146 274,146 275,147 274,148 275,147 277,147 278,148 277,149 279,149 280,148 286,148 287,149 287,148 288,147 290,147 291,146 292,146 293,147 292,148 293,148 294,147 293,147 292,146 293,145 295,145 295,144 296,143 297,143 297,142 298,141 299,142 298,141 300,139 300,138 301,137 302,138 302,137 303,136 302,135 303,134 303,133 304,132 304,130 305,129 305,116 304,115 304,112 303,111 304,110 305,110 304,110 303,109 303,107 304,106 306,106 307,107 308,107 309,106 312,109 311,110 309,110 311,110 312,109 312,108 313,107 314,107 315,108 316,108 317,107 318,107 319,108 320,108 319,108 318,107 319,106 321,106 322,105 323,105 324,106 325,106 326,105 327,105 328,104 327,105 326,105 325,106 324,106 323,105 328,100 328,99 329,98 329,97 331,95 331,94 330,93 330,87 329,86 329,84 328,83 328,82 327,81 328,80 327,81 326,80 326,79 324,77 325,76 326,76 325,76 324,77 323,76 322,76 321,75 320,75 319,74 312,74 311,73 311,72 311,73 310,74 307,74 306,75 305,74 305,71 306,70 306,68 307,67 308,68 307,67 307,65 308,64 307,63 308,62 308,58 307,57 307,54 306,53 306,52 307,51 307,50 305,48 305,47 304,46 303,46 302,45 302,44 303,43 302,44 299,41 299,40 298,40 295,37 295,36 295,37 294,38 292,36 294,34 295,34 294,34 293,35 292,35 291,36 288,36 287,35 282,35 281,36 280,36 277,33 276,33 275,32 276,33 277,33 279,35 278,36 277,36 276,35 275,35 276,36 275,37 274,37 273,38 272,37 272,36 272,37 268,41 267,40 266,40 267,40 268,41 262,47 262,48 261,49 259,47 259,46 259,47 261,49 261,50 260,51 259,50 258,50 258,51 259,52 258,53 258,55 257,56 255,54 255,53 254,52 254,51 255,50 255,49 254,48 253,48 252,47 252,46 253,45 254,46 254,45 252,43 252,41 251,40 251,39 252,38 253,38 255,40 256,40 255,39 254,39 253,38 253,37 251,39 249,37 249,36 248,35 249,34 249,33 249,34 248,35 247,34 247,33 246,33 245,32 245,31 246,30 247,30 248,31 247,30 246,30 245,31 244,31 240,27 239,27 238,26 239,25 240,25 239,25 238,26 237,26 236,25 237,24 236,25 235,25 234,24 232,24 231,23 229,23 228,22 225,22 224,21 223,22 222,21 Z" fill="black" />
<path d="M 210,21 211,21 Z" fill="black" />
<path d="M 198,21 197,22 196,22 197,22 198,21 199,21 Z" fill="black" />
<path d="M 241,19 241,20 Z" fill="black" />
<path d="M 227,19 228,19 Z" fill="black" />
<path d="M 208,19 210,19 Z" fill="black" />
<path d="M 198,19 199,19 Z" fill="black" />
<path d="M 224,18 225,18 Z" fill="black" />
<path d="M 209,17 211,17 Z" fill="black" />
<path d="M 228,16 229,16 Z" fill="black" />
<path d="M 209,15 210,15 Z" fill="black" />
<path d="M 234,14 235,14 Z" fill="black" />
<path d="M 222,14 224,14 Z" fill="black" />
<path d="M 213,14 212,15 213,15 Z" fill="black" />
<path d="M 215,13 216,14 215,15 216,14 217,14 216,14 Z" fill="black" />
<path d="M 212,9 211,10 208,10 207,11 205,11 204,12 203,12 202,13 200,13 199,14 198,14 197,15 196,15 195,16 194,16 190,20 189,20 186,23 186,24 184,26 183,26 182,27 182,28 180,30 180,32 178,34 178,35 177,36 177,37 176,38 176,39 175,40 175,41 174,42 174,45 173,46 173,58 171,60 168,60 167,61 166,61 165,62 164,62 162,64 161,64 159,66 158,66 153,71 153,72 152,73 151,73 151,74 149,76 149,77 147,79 147,80 146,81 146,83 145,84 145,85 144,86 144,88 143,89 143,92 142,93 142,94 141,95 140,95 139,94 132,94 131,95 128,95 127,96 125,96 124,97 122,97 121,98 120,98 118,100 116,100 115,101 114,101 109,106 108,106 107,107 107,108 105,110 105,111 101,115 101,116 100,117 100,119 99,120 99,122 98,123 98,125 97,126 97,128 96,129 96,140 94,142 90,142 89,143 87,143 86,144 84,144 83,145 82,145 81,146 79,146 78,147 77,147 75,149 74,149 73,150 73,151 72,152 71,152 66,157 66,159 65,160 64,160 64,161 63,162 63,163 62,164 62,165 61,166 61,167 60,168 60,172 59,173 59,177 58,178 58,186 59,187 59,191 60,192 60,197 61,198 61,199 63,201 63,202 64,203 64,204 66,206 66,207 73,214 73,217 72,218 72,219 71,220 71,223 70,224 70,234 71,235 71,238 72,239 72,240 73,241 73,244 77,248 77,249 81,253 82,253 83,254 84,254 87,257 88,257 89,258 90,258 91,259 98,259 99,260 109,260 110,259 111,259 112,258 113,259 116,259 117,258 119,258 119,257 120,256 122,256 123,257 123,259 124,260 124,262 125,263 125,265 126,266 126,270 127,271 127,273 128,274 128,277 129,278 129,279 130,280 130,283 131,284 131,286 132,287 132,289 133,290 133,294 134,295 134,298 135,299 135,301 136,302 136,305 137,306 137,308 138,309 138,311 139,312 139,314 140,315 140,321 141,322 141,325 142,326 138,330 138,331 135,334 135,335 133,337 133,339 131,341 131,342 129,344 129,345 128,346 128,347 127,348 127,349 126,350 126,352 125,353 125,354 124,355 124,356 123,357 123,358 122,359 122,360 121,361 121,362 120,363 120,366 119,367 119,369 118,370 118,372 117,373 117,374 116,375 116,378 115,379 115,381 114,382 114,385 113,386 113,408 114,409 113,410 113,415 114,416 114,418 115,419 115,421 113,423 113,425 112,426 111,426 111,427 110,428 110,429 109,430 109,433 108,434 108,441 109,442 109,444 114,449 115,449 116,450 118,450 119,451 120,451 121,452 127,452 128,453 144,453 145,454 146,454 147,453 148,453 149,452 149,447 150,446 150,436 151,435 151,434 153,432 153,431 155,429 155,428 156,427 156,424 155,423 155,422 154,421 154,420 151,417 150,417 149,416 147,416 146,415 143,415 142,414 137,414 136,413 131,413 130,412 130,411 129,410 129,391 130,390 130,385 131,384 131,381 132,380 132,377 133,376 133,372 134,371 134,369 135,368 135,367 136,366 136,364 137,363 137,362 138,361 138,360 139,359 139,356 140,355 140,354 142,352 142,351 143,350 143,349 144,348 144,347 145,346 146,346 147,347 147,352 148,353 148,357 149,358 149,363 150,364 150,368 151,369 151,375 152,376 152,383 153,384 153,401 154,402 154,405 155,406 155,408 156,409 156,410 158,412 158,413 159,413 160,414 160,415 164,419 166,419 167,420 168,420 169,421 171,421 172,422 173,422 174,423 177,423 178,424 182,424 183,425 207,425 208,424 214,424 215,423 221,423 222,424 222,438 223,439 223,443 221,445 220,445 219,446 218,446 218,470 217,471 216,471 215,470 203,470 202,471 200,471 198,473 197,473 197,474 196,475 196,476 195,477 195,492 196,493 198,493 199,494 201,494 202,495 206,495 207,496 211,496 212,497 231,497 232,496 235,496 236,495 238,495 239,494 240,494 241,493 244,493 250,487 250,486 252,484 252,482 253,481 253,479 254,478 255,479 255,480 256,481 257,481 258,480 258,479 259,478 259,474 258,474 257,475 256,474 255,474 255,475 254,476 251,476 253,476 254,477 253,478 251,478 252,478 253,479 251,481 250,480 249,481 248,481 249,481 250,480 252,482 251,483 250,483 249,484 250,485 250,486 249,487 248,486 249,487 248,488 247,488 246,489 245,489 245,490 244,491 243,490 242,490 241,489 241,488 240,489 241,489 242,490 243,490 244,491 243,492 242,492 241,493 239,491 241,493 240,494 239,494 238,495 237,494 237,492 236,491 237,490 236,491 237,492 237,493 236,494 235,493 234,493 235,493 236,494 235,495 232,495 231,494 232,493 232,491 235,488 234,489 233,489 233,490 232,491 232,493 231,494 230,494 227,497 224,497 223,496 215,496 214,495 207,495 206,494 205,494 204,495 202,493 201,493 200,492 198,492 197,491 197,490 198,489 199,490 199,489 198,489 197,488 199,486 198,487 197,486 197,485 196,484 196,482 198,480 197,481 196,480 196,479 197,478 198,478 200,476 199,476 198,475 198,474 199,473 201,473 203,471 205,471 206,470 207,471 208,471 209,470 210,471 219,471 219,470 220,469 221,470 222,470 221,470 220,469 220,468 219,467 219,466 220,465 222,467 222,468 222,467 223,466 223,465 222,464 223,465 223,466 222,467 219,464 220,463 220,461 219,460 219,448 221,446 222,447 223,447 223,446 224,445 224,430 223,429 223,421 222,422 220,422 219,423 218,423 215,420 214,420 213,421 212,421 212,422 211,423 209,423 208,422 210,420 209,420 209,421 208,422 207,422 206,423 205,423 204,424 202,424 201,425 198,425 197,424 196,425 192,425 191,424 186,424 185,425 184,425 183,424 183,422 182,423 180,423 179,424 177,422 178,421 179,421 178,421 177,420 176,420 175,419 176,418 175,419 174,419 172,421 171,421 170,420 171,419 170,419 169,420 168,419 168,418 167,418 166,419 165,418 165,417 166,416 165,417 164,417 162,415 161,415 159,413 160,412 159,413 158,412 158,411 156,409 157,408 156,407 156,403 155,402 155,401 156,400 157,400 156,400 154,398 154,397 155,396 156,397 157,396 158,397 158,398 158,397 159,396 159,395 159,396 158,397 157,396 156,397 154,395 154,392 155,391 155,390 154,389 154,387 153,386 153,385 154,384 155,384 156,383 157,383 159,385 159,386 160,386 157,383 156,383 154,381 154,379 153,378 153,375 152,374 152,369 151,368 151,363 150,362 151,361 150,360 151,359 150,358 150,357 151,356 151,355 151,356 150,357 149,356 149,353 150,352 151,353 149,351 150,350 150,349 149,348 149,347 148,346 147,346 146,345 147,344 147,342 145,342 144,343 144,344 145,345 144,346 143,346 144,347 143,348 143,349 142,350 142,351 140,353 139,352 137,354 137,355 138,356 138,357 137,358 136,358 137,358 138,359 138,360 136,362 136,364 135,365 134,364 134,363 134,364 135,365 135,366 134,367 134,369 133,370 132,369 133,370 132,371 133,372 132,373 132,374 131,375 131,377 130,378 131,379 130,380 130,382 131,383 130,384 129,384 128,383 129,384 128,385 128,387 129,388 128,389 129,390 129,392 128,393 128,395 129,396 129,398 128,399 128,400 129,401 129,403 128,404 128,405 129,406 129,409 128,410 129,411 129,413 128,414 128,415 130,415 131,414 132,415 139,415 140,414 141,414 142,415 141,416 142,417 143,417 145,415 146,416 146,417 144,419 145,419 148,416 149,417 149,418 150,417 151,418 151,419 149,421 149,422 150,423 149,422 150,421 152,421 156,425 156,426 155,427 154,427 153,428 154,429 152,431 152,432 151,433 150,433 150,434 149,435 148,434 147,434 146,435 145,435 145,437 146,436 146,435 147,434 150,437 150,438 149,439 148,438 148,439 149,439 150,440 150,441 149,442 148,442 149,443 149,446 147,448 148,447 149,448 149,449 148,450 147,450 146,451 146,452 145,453 143,451 145,449 144,448 145,447 145,446 144,446 145,447 144,448 145,449 143,451 144,452 143,453 140,453 139,452 136,452 135,451 134,452 133,452 132,451 131,451 130,452 129,452 128,451 128,450 128,451 127,452 126,451 126,450 125,451 124,451 123,450 123,451 122,452 121,451 121,449 122,448 121,449 119,449 118,450 117,449 117,448 118,447 118,446 118,447 117,448 116,448 115,447 115,445 114,444 111,444 110,443 112,441 111,442 109,440 111,438 110,439 109,438 109,436 110,435 111,436 110,435 110,434 111,433 110,433 109,432 111,430 112,430 112,429 111,428 112,427 112,426 113,425 114,425 114,424 115,423 117,423 116,422 117,421 118,421 117,420 117,419 119,417 118,416 117,416 115,414 115,413 116,412 115,413 114,412 114,410 116,408 117,408 116,408 115,409 113,407 113,405 114,404 114,403 113,402 113,399 114,398 114,393 115,392 114,391 115,390 114,389 116,387 117,388 117,389 118,390 119,389 118,390 117,389 117,388 115,386 115,385 116,384 116,382 117,381 118,381 118,380 117,379 117,377 118,376 119,376 118,375 119,374 119,373 118,372 119,371 119,370 120,369 121,369 121,368 122,367 123,367 124,366 123,366 122,365 122,363 124,361 123,360 124,359 125,359 127,361 128,360 127,361 125,359 125,358 126,357 127,358 126,357 127,356 126,356 125,355 126,354 126,353 129,350 129,349 130,348 131,348 130,347 131,346 132,346 133,347 134,347 135,346 134,346 133,347 131,345 131,344 132,343 133,344 133,343 134,342 135,342 134,342 133,341 133,340 134,339 135,340 134,339 136,337 137,337 137,336 138,335 138,334 139,333 140,334 141,334 142,335 141,334 142,333 142,332 141,331 143,329 143,323 142,322 142,320 143,319 142,320 141,319 141,317 142,316 143,317 143,316 142,315 143,314 142,315 141,315 140,314 141,313 141,312 140,312 139,311 139,310 140,309 141,310 139,308 140,307 142,307 143,306 144,307 144,308 143,309 144,308 144,307 143,306 142,307 140,307 139,308 138,307 138,304 139,303 138,302 138,301 137,301 136,300 137,299 136,298 136,297 137,296 138,296 139,297 139,298 139,297 138,296 136,296 135,295 135,293 134,292 134,291 135,290 134,290 133,289 133,288 132,287 134,285 133,285 132,284 132,283 133,282 134,282 134,281 136,279 137,280 137,281 137,280 136,279 135,280 132,277 132,278 131,279 130,278 130,277 129,276 130,275 131,275 130,275 129,274 130,273 129,273 128,272 129,271 129,270 127,268 127,266 126,265 127,264 126,263 127,262 126,261 127,260 125,258 126,257 127,257 126,256 126,257 125,258 124,257 124,256 120,256 119,257 117,257 116,256 117,257 116,258 115,258 114,257 114,256 114,257 115,258 114,259 113,259 112,258 111,259 110,258 107,258 109,258 110,259 109,260 105,260 104,259 103,259 102,260 101,260 100,259 99,259 98,258 97,258 96,259 94,257 94,256 93,257 92,256 91,257 90,257 89,256 87,256 86,255 87,254 86,253 85,254 83,252 84,251 83,252 82,251 82,250 81,249 81,248 81,249 80,250 79,250 78,249 79,248 77,246 77,245 78,244 79,244 81,246 79,244 78,244 77,243 79,241 77,239 77,234 78,233 77,234 77,239 76,240 75,239 75,238 75,240 74,241 73,240 73,239 72,238 72,236 73,235 74,236 74,235 73,234 73,235 72,236 71,235 71,224 72,223 73,223 72,222 72,221 73,220 74,220 74,219 73,218 73,217 75,215 76,216 76,218 76,216 75,215 76,214 75,213 77,211 79,213 78,214 79,215 79,217 79,215 78,214 79,213 77,211 76,212 75,211 74,211 73,212 72,211 71,211 70,210 71,209 73,209 74,208 74,207 74,208 73,209 72,208 72,206 70,204 71,203 71,202 70,201 70,200 69,201 68,201 67,200 67,201 66,202 65,202 64,201 64,200 63,199 63,198 62,197 62,196 63,195 62,195 61,194 62,193 63,193 62,192 62,190 63,189 62,190 61,189 60,190 59,189 59,188 61,186 62,187 63,187 62,187 60,185 61,184 62,184 63,185 62,184 63,183 62,184 61,183 61,182 62,181 61,182 59,180 59,177 60,176 60,175 61,174 62,175 62,177 61,178 61,179 61,178 62,177 62,174 63,173 62,174 61,174 60,173 61,172 60,171 61,170 62,170 63,171 62,170 62,168 63,167 64,167 63,166 64,165 65,165 64,165 63,164 64,163 65,163 67,161 69,161 70,162 70,163 69,164 68,164 67,165 67,167 67,165 68,164 70,164 71,165 70,164 70,162 69,161 67,161 66,160 67,159 68,159 67,158 69,156 70,156 71,155 71,154 72,153 73,153 73,152 74,151 76,151 80,147 82,147 84,145 85,145 86,146 85,147 85,149 86,150 85,149 85,147 86,146 87,146 86,146 85,145 86,144 87,144 88,143 93,143 94,142 95,143 96,143 96,142 97,141 98,142 98,141 97,140 97,139 98,138 98,137 97,136 97,134 96,133 96,132 97,131 98,131 97,130 97,129 98,128 99,129 100,129 99,129 98,128 98,126 99,125 100,125 101,124 102,124 103,125 103,126 103,125 102,124 103,123 103,122 103,123 102,124 101,124 100,125 99,124 99,123 100,122 100,120 101,119 102,120 103,119 102,118 102,117 104,115 105,116 105,118 105,116 103,114 105,112 106,113 106,114 107,113 106,113 105,112 106,111 107,111 107,110 108,109 109,110 108,109 110,107 111,107 111,106 112,105 113,105 113,104 114,103 116,103 117,102 118,103 117,102 118,101 120,101 121,102 122,102 123,101 124,101 125,100 126,100 127,101 124,104 127,101 128,101 127,101 126,100 127,99 126,98 127,97 128,97 129,96 133,96 134,95 135,96 143,96 144,95 144,93 146,91 146,90 147,89 147,87 148,86 147,85 148,84 147,83 147,82 148,81 148,79 149,78 150,79 152,77 154,77 155,78 156,78 157,79 157,78 158,77 159,77 158,76 158,77 157,78 156,78 155,77 155,76 156,75 155,75 154,74 154,73 157,70 158,71 157,70 157,69 158,68 160,68 161,67 162,67 163,68 163,69 164,70 165,70 164,70 163,69 163,68 162,67 166,63 167,64 167,63 168,62 169,63 169,62 170,61 172,61 173,60 175,60 174,60 173,59 174,58 173,57 174,56 174,55 173,54 173,53 174,52 175,53 175,51 174,50 174,49 175,48 174,47 175,46 175,45 176,44 176,43 177,42 177,40 178,39 179,39 180,38 181,39 182,39 181,39 180,38 181,37 181,36 182,35 183,35 184,34 181,31 184,28 185,29 185,30 186,31 185,32 186,32 186,31 185,30 185,26 186,25 188,27 189,27 190,28 190,29 189,30 188,29 187,29 188,30 189,30 190,29 190,28 191,27 190,28 189,27 188,27 187,26 187,25 189,23 190,23 191,24 190,25 191,24 192,25 193,25 192,25 190,23 191,22 191,21 195,17 196,18 196,19 194,21 195,20 196,20 196,18 197,17 198,17 200,15 202,15 203,14 204,15 205,14 206,15 208,13 208,12 209,11 210,11 211,12 210,13 211,12 213,12 214,11 217,11 218,12 220,12 219,12 218,11 219,10 223,10 224,11 225,10 227,10 228,11 227,12 226,12 226,13 228,11 231,11 232,12 231,13 230,13 231,13 232,12 236,12 237,13 239,13 240,14 239,15 240,14 241,15 242,15 243,16 244,16 245,17 246,17 247,18 246,19 244,19 244,20 245,19 247,19 248,20 249,20 251,22 252,22 257,27 256,28 257,29 255,31 256,30 257,31 256,30 257,29 258,29 260,31 262,31 264,29 266,29 267,30 266,29 266,28 267,27 268,27 269,26 270,27 270,28 270,27 271,26 272,27 273,27 274,26 275,26 274,26 273,25 274,24 276,24 277,25 279,25 280,24 285,24 286,25 288,25 288,24 289,23 290,24 290,26 291,26 290,25 291,24 292,24 293,25 296,25 297,26 296,27 294,27 296,27 297,26 298,27 298,28 297,29 296,29 297,30 296,31 297,30 298,31 299,30 300,31 301,31 302,30 303,31 304,30 305,31 306,31 307,32 308,32 309,33 308,34 310,36 311,36 312,37 311,38 312,37 313,38 313,39 314,40 312,42 314,40 316,42 316,43 317,44 316,45 315,45 314,44 314,43 314,44 315,45 316,45 318,47 318,48 319,49 318,50 317,50 319,52 319,54 318,55 317,55 318,55 319,54 320,55 320,60 321,61 320,62 320,63 323,63 324,64 326,64 327,65 328,65 329,66 328,67 329,68 328,69 329,68 331,70 332,69 333,69 334,70 334,71 335,70 336,71 336,72 337,73 336,74 337,74 338,75 338,76 337,77 338,76 339,77 339,80 341,82 341,83 340,84 337,81 337,80 337,81 340,84 340,85 341,86 340,87 339,87 338,86 338,85 338,86 337,87 338,86 339,87 340,87 341,86 342,87 342,88 343,89 343,93 342,94 341,94 341,96 340,97 339,97 340,97 341,98 340,99 339,99 340,99 341,100 340,101 340,103 339,104 338,103 337,103 339,105 336,108 336,109 334,111 334,112 333,113 331,111 331,109 331,112 332,113 329,116 327,116 325,118 324,117 323,117 322,116 323,117 322,118 321,118 318,121 317,120 318,121 317,122 315,122 314,121 315,120 314,121 315,122 315,124 317,126 317,130 316,131 317,132 315,134 315,136 314,137 314,138 313,139 312,139 313,139 314,140 314,141 310,145 309,144 308,145 307,145 308,145 309,144 310,145 310,146 309,147 308,147 309,148 308,149 305,149 304,150 305,151 303,153 302,152 303,153 302,154 301,154 300,153 298,153 297,152 298,153 300,153 301,154 300,155 298,155 297,156 294,156 294,157 293,158 292,158 290,160 289,159 289,158 291,156 289,158 289,159 288,160 287,160 287,162 286,163 286,165 288,167 288,168 290,170 289,171 288,171 289,172 289,173 288,174 287,173 285,175 284,174 284,173 283,172 284,171 285,171 286,170 285,171 284,171 282,169 282,164 282,165 281,166 280,165 280,163 278,161 279,160 275,160 274,159 273,159 272,158 269,158 268,157 269,156 271,156 269,156 268,157 267,157 263,153 264,152 263,153 260,150 258,150 257,149 258,148 259,148 259,147 261,145 257,149 256,148 253,148 252,149 251,149 250,150 249,150 247,148 246,148 247,148 248,149 246,151 244,151 243,150 244,149 243,149 241,151 240,151 239,152 228,152 227,151 226,151 225,150 224,150 223,149 222,150 219,150 218,149 215,149 215,150 214,151 214,153 213,154 213,157 212,158 212,159 211,160 210,159 211,160 210,161 209,161 210,162 208,164 205,164 204,165 204,166 206,164 207,164 208,165 206,167 206,168 205,169 204,168 205,169 204,170 203,170 202,169 200,171 199,170 195,170 199,170 200,171 199,172 200,173 198,175 197,175 196,174 197,173 197,172 196,173 196,175 195,176 194,176 195,177 194,178 194,179 195,179 196,180 195,181 196,181 197,182 197,183 198,184 198,186 199,187 199,191 200,192 200,200 199,201 199,202 198,203 197,202 197,206 196,207 196,208 195,209 194,208 195,209 195,210 194,211 193,211 192,212 192,215 190,217 189,217 188,216 189,217 188,218 187,218 187,219 186,220 185,220 185,221 184,222 182,222 182,223 181,224 180,224 179,225 178,225 177,226 176,225 176,224 176,225 174,227 173,227 172,226 172,225 172,226 171,227 164,227 163,226 163,225 162,225 161,224 159,224 159,225 158,226 157,225 155,225 154,224 153,225 151,223 150,223 149,222 150,221 151,221 149,221 148,222 145,222 144,223 143,222 142,222 140,224 139,224 138,225 137,225 137,228 136,229 136,231 137,232 136,233 136,236 134,238 134,241 133,242 132,241 132,240 131,239 130,240 130,242 131,243 131,244 132,245 131,246 131,249 132,250 132,252 131,253 131,254 132,255 131,256 131,257 133,255 134,256 134,257 135,258 135,260 136,261 136,263 137,264 137,265 138,266 138,267 137,268 136,267 137,268 137,269 138,269 139,270 139,271 140,272 140,276 141,277 141,278 142,279 142,280 143,281 143,282 142,283 142,284 143,284 144,285 144,286 143,287 144,287 146,289 146,293 147,294 147,295 146,296 146,298 146,297 147,296 148,297 148,300 149,301 149,302 150,303 150,304 151,305 151,306 152,307 152,309 153,310 153,311 152,312 153,313 153,314 152,315 153,315 154,316 154,319 153,320 153,322 153,320 154,319 155,320 155,324 157,326 157,328 158,329 158,331 157,332 156,331 155,331 156,331 157,332 157,333 157,332 158,331 159,332 159,334 158,335 159,334 160,335 160,343 161,344 161,346 160,347 161,346 162,347 162,352 163,353 163,358 164,359 164,361 165,362 165,364 164,365 163,365 163,366 164,366 165,367 164,368 164,370 163,371 164,370 165,370 166,371 166,375 165,376 166,377 166,381 165,382 166,383 166,384 167,385 167,387 166,388 165,387 165,388 166,388 167,387 168,388 168,390 169,390 170,391 169,392 170,393 172,393 173,394 171,396 171,397 171,396 172,395 173,395 174,396 175,396 176,397 177,397 178,398 179,398 180,399 183,399 184,400 186,400 187,401 190,401 191,402 191,403 191,402 192,401 196,401 197,402 196,403 195,403 196,403 197,402 204,402 205,401 214,401 215,400 216,401 217,401 218,400 222,400 223,399 228,399 229,398 231,398 232,399 232,398 233,397 234,397 235,398 236,397 238,399 238,397 239,396 240,397 241,396 244,396 245,395 247,395 249,393 252,393 253,392 254,392 255,393 257,393 257,392 258,391 260,391 261,390 262,391 263,390 264,390 265,389 267,389 268,388 270,388 271,387 272,387 273,386 274,386 275,387 277,385 280,385 281,384 282,384 283,383 284,383 285,382 286,383 287,382 288,383 288,382 289,381 290,381 291,380 293,380 294,381 293,382 294,382 297,379 300,379 299,379 298,378 299,377 304,377 304,376 305,375 307,375 308,374 309,374 310,373 311,373 312,374 311,375 312,374 312,373 314,371 315,371 316,372 315,373 315,374 314,375 315,374 317,374 318,375 318,374 316,374 315,373 316,372 318,372 318,371 319,370 320,371 322,371 320,371 319,370 320,369 322,369 323,368 325,368 326,367 329,367 329,366 330,365 331,366 332,366 331,365 331,364 332,363 333,364 332,363 333,362 333,355 334,354 334,352 333,351 333,341 332,340 332,339 333,338 332,337 332,334 333,333 333,330 331,328 331,325 332,324 332,321 331,322 330,321 330,318 329,317 329,315 330,314 330,312 331,311 332,312 333,311 333,308 333,311 332,312 331,311 331,310 331,311 329,313 328,312 328,305 327,304 327,303 326,302 326,301 327,300 325,298 325,294 324,293 325,292 326,292 324,290 324,289 325,288 325,287 326,286 326,284 327,283 326,284 325,283 325,281 325,283 326,284 326,286 325,287 325,288 324,289 323,288 323,284 322,283 322,281 321,280 321,279 320,278 320,275 319,274 320,273 323,273 323,272 322,273 320,273 319,272 316,272 315,273 314,272 313,273 312,272 311,273 310,272 311,273 311,274 310,275 309,275 308,274 308,273 307,273 306,272 309,275 308,276 307,276 307,277 306,278 305,278 304,277 304,276 305,275 305,274 303,276 305,278 303,280 301,280 300,281 300,282 299,283 298,283 297,284 290,284 289,285 288,285 287,284 285,284 284,283 284,284 283,285 283,286 284,287 284,288 283,289 282,288 280,288 279,289 281,291 279,293 278,293 277,292 275,292 277,292 278,293 277,294 276,294 275,295 272,295 271,296 257,296 256,295 253,295 252,294 251,295 248,295 246,297 244,297 243,298 242,298 241,297 241,296 241,297 242,298 241,299 240,299 239,300 239,301 238,302 237,302 236,301 236,303 235,304 234,304 233,303 233,306 232,307 231,306 232,307 231,308 230,308 229,307 228,307 228,308 229,309 228,310 225,310 224,311 222,311 221,312 220,312 219,313 217,313 216,312 217,311 218,311 219,310 218,310 217,309 216,309 213,306 214,305 215,305 218,302 219,303 219,301 220,300 221,300 222,301 222,302 221,303 222,303 223,302 222,301 222,300 223,299 223,297 224,296 224,295 225,294 226,294 228,292 229,292 229,288 230,287 231,288 233,288 233,286 232,285 232,284 233,283 235,283 235,281 236,280 237,281 237,282 237,281 236,280 235,280 234,279 235,278 235,277 236,276 237,277 237,278 239,280 239,281 239,280 238,279 239,278 238,279 237,278 237,277 236,276 236,275 237,274 237,273 239,271 241,271 241,270 243,268 246,268 247,269 246,270 244,270 244,271 247,271 247,269 246,268 247,267 247,265 245,263 246,262 247,262 248,263 247,262 248,261 251,261 253,259 254,259 255,258 256,258 257,257 262,257 263,258 264,257 265,257 266,258 266,259 267,259 268,258 269,259 271,259 273,261 272,262 271,262 270,261 269,261 269,262 272,262 273,263 272,262 273,261 274,261 275,262 275,263 277,261 278,262 278,263 278,262 280,260 280,259 281,258 281,255 283,253 285,255 284,256 285,257 282,260 282,262 283,263 283,261 282,260 285,257 284,256 285,255 285,254 284,253 286,251 287,251 288,252 288,253 287,254 288,255 288,254 289,253 291,253 292,254 291,255 292,255 292,253 293,252 294,252 295,253 294,254 295,255 296,255 296,253 295,253 294,252 295,251 292,251 291,252 289,250 291,248 292,249 293,249 292,248 293,247 301,247 302,246 304,246 305,247 306,247 307,248 311,248 311,244 310,243 310,241 311,240 310,241 308,239 309,238 310,238 310,237 309,236 308,236 307,235 307,232 306,231 306,230 305,229 305,228 306,227 306,226 305,227 304,226 304,225 305,224 304,224 303,223 303,222 302,221 303,220 302,220 299,217 298,217 299,217 300,218 298,220 297,219 297,220 296,221 292,221 291,220 289,220 288,219 288,218 289,217 288,218 286,218 285,217 286,216 287,216 288,215 289,215 289,214 290,213 291,213 293,215 292,214 295,211 296,211 297,212 299,210 299,208 300,207 300,206 299,205 300,204 299,204 298,203 298,202 298,204 297,205 296,204 296,202 295,201 295,199 294,198 294,196 293,195 293,194 292,193 292,191 291,190 291,189 290,188 290,186 288,184 288,182 287,181 287,180 286,179 286,175 287,174 289,176 289,179 289,176 288,175 288,174 289,173 290,173 290,172 289,171 290,170 291,170 293,172 292,173 292,174 291,175 292,176 292,179 292,176 291,175 292,174 292,173 293,172 294,173 294,176 295,177 295,178 296,179 296,180 297,181 296,182 296,183 296,182 297,181 298,182 298,184 297,185 296,185 299,188 297,190 298,191 298,192 299,193 299,196 299,193 298,192 298,191 297,190 298,189 299,189 300,190 301,190 302,191 301,192 301,193 304,196 304,197 303,198 303,200 305,202 304,203 302,203 302,204 303,203 304,203 306,205 304,203 306,201 307,201 308,202 307,203 311,199 312,199 313,198 314,198 315,199 316,199 317,198 322,198 322,197 321,198 318,198 317,197 319,195 320,195 319,195 318,194 319,193 320,193 322,191 324,191 325,192 327,192 328,193 327,194 327,197 326,198 326,199 325,200 324,199 325,200 324,201 325,202 324,203 324,204 325,205 324,206 324,207 323,208 323,210 322,211 320,211 322,211 323,212 322,213 322,214 321,215 320,214 320,213 320,214 321,215 320,216 321,217 321,218 320,219 319,218 320,219 320,221 319,222 318,221 318,220 317,220 318,221 317,222 314,222 314,223 313,224 314,224 315,225 314,226 313,226 315,228 314,229 313,229 312,228 315,231 315,232 315,231 316,230 317,231 317,235 318,236 318,238 317,239 318,238 320,240 320,242 321,243 320,244 321,244 322,245 321,246 320,246 323,249 323,250 324,251 323,252 322,252 321,251 321,250 321,251 320,252 321,251 322,252 323,252 324,253 323,254 320,254 323,254 324,255 324,257 325,257 326,256 327,257 328,257 329,258 329,259 330,260 331,259 334,259 335,260 335,261 336,261 337,260 339,260 340,261 339,262 338,262 339,262 340,261 345,261 346,262 347,261 348,261 349,260 350,261 351,261 352,262 352,263 350,265 349,265 350,266 349,267 349,268 348,269 348,270 347,271 346,270 345,271 344,271 342,273 341,272 336,272 335,273 334,272 333,273 332,273 331,272 330,272 330,273 329,274 328,274 330,274 331,275 330,276 328,276 330,276 331,277 330,278 329,278 331,278 332,279 331,280 332,281 331,282 332,283 332,284 331,285 332,284 333,285 333,286 332,287 332,288 334,290 334,294 335,295 335,297 334,298 335,299 335,300 336,301 336,303 337,304 336,305 337,306 337,307 336,308 337,309 337,310 336,311 335,311 335,312 337,310 338,311 338,312 336,314 339,317 338,316 339,315 341,315 342,316 342,317 340,319 339,319 340,319 341,318 342,318 344,320 344,319 345,318 346,318 347,319 348,319 350,321 351,321 352,320 361,320 362,319 363,319 364,318 365,319 366,319 367,318 368,318 368,317 369,316 370,316 371,315 371,314 372,313 374,315 375,314 373,314 372,313 373,312 374,312 375,311 376,311 377,310 378,311 379,310 379,308 381,306 383,306 383,305 382,304 382,303 383,302 385,302 383,302 382,301 384,299 384,298 385,297 386,298 386,299 386,298 387,297 386,297 385,296 387,294 387,293 388,292 389,293 390,292 391,293 390,292 390,291 391,290 390,289 391,288 390,287 391,286 391,284 390,283 391,282 392,282 393,281 393,267 394,266 393,266 392,265 392,264 391,263 391,262 390,261 391,260 390,259 391,258 390,257 391,256 389,254 390,253 390,252 390,253 389,254 388,254 387,253 388,252 386,250 386,249 385,248 385,247 387,245 387,244 388,243 389,244 390,244 391,245 390,246 389,246 388,247 389,248 388,249 390,247 391,247 392,248 390,250 392,248 392,247 393,246 394,247 394,250 393,251 392,251 393,251 394,250 395,250 396,251 394,253 395,254 394,255 395,254 396,254 397,255 396,254 398,252 399,253 399,254 400,254 401,255 402,255 403,254 404,255 405,254 406,254 407,255 408,255 409,254 410,254 411,255 410,254 409,254 408,253 409,252 411,252 414,255 411,252 412,251 413,251 414,252 413,251 414,250 415,250 416,251 418,251 419,252 419,253 419,252 418,251 419,250 421,250 422,251 421,252 421,253 422,253 423,254 422,255 422,257 424,259 424,260 425,261 424,262 425,262 426,263 426,265 425,266 424,265 424,264 424,265 425,266 424,267 425,266 426,266 427,267 427,268 428,269 428,270 426,272 428,270 429,271 429,272 427,274 427,275 428,274 429,275 429,276 428,277 428,279 426,281 427,280 428,281 428,282 427,283 425,283 424,284 424,285 426,287 426,288 425,289 423,289 421,291 420,290 419,290 420,291 419,292 418,292 417,291 417,290 415,292 413,290 412,290 413,291 412,292 411,292 410,291 409,291 408,290 407,290 406,289 407,288 408,288 407,288 406,289 405,288 405,289 406,289 407,290 406,291 404,291 403,290 402,290 403,291 402,292 402,293 401,294 400,294 401,295 401,296 400,297 399,296 398,297 397,297 396,296 399,299 398,300 397,300 394,297 394,296 393,296 392,297 393,296 395,298 395,300 396,299 397,300 398,300 399,301 397,303 396,302 397,303 397,304 395,306 395,307 394,308 393,307 392,307 393,307 394,308 393,309 393,310 392,311 393,312 392,313 391,313 390,312 391,313 391,314 390,315 389,314 389,316 388,317 388,318 387,319 386,319 385,318 386,317 384,315 385,314 386,314 387,315 386,314 387,313 386,312 387,313 386,314 385,314 384,313 384,312 381,309 382,308 383,308 382,308 381,309 384,312 384,313 385,314 384,315 385,316 384,317 386,319 386,320 385,321 384,320 383,321 384,322 383,323 382,323 381,322 382,323 381,324 380,324 379,323 377,325 376,325 377,325 378,326 377,327 376,327 375,328 374,328 373,329 372,329 371,328 370,329 370,330 368,332 367,331 367,332 366,333 365,332 365,331 364,330 364,329 365,328 366,329 368,329 367,329 366,328 365,328 364,329 363,328 362,328 363,328 364,329 364,331 365,332 364,333 362,333 361,332 362,331 362,330 360,332 359,331 355,331 359,331 361,333 360,334 356,334 355,333 352,333 351,332 350,333 349,333 348,332 348,333 347,334 346,333 345,333 344,332 345,331 343,333 342,332 342,331 342,332 343,333 342,334 339,334 341,334 342,335 342,336 343,337 342,338 342,339 341,340 341,341 342,342 342,343 343,344 343,345 342,346 342,350 343,351 342,352 343,353 343,354 344,355 344,361 345,362 345,363 344,364 344,372 343,373 343,377 342,378 342,379 344,381 342,383 342,384 341,385 340,384 340,385 339,386 338,386 337,387 334,387 333,386 334,385 333,384 331,384 330,385 329,384 330,385 330,386 331,387 332,386 333,386 334,387 332,389 330,389 329,388 328,389 328,391 327,392 324,392 323,393 322,392 320,394 318,392 317,393 316,393 315,392 316,393 316,394 313,397 313,399 314,400 314,417 313,418 314,419 314,420 313,421 312,420 313,421 313,423 314,424 314,432 315,433 312,436 314,434 315,435 315,436 313,438 312,438 313,438 314,437 315,437 317,439 318,439 319,438 320,439 320,458 321,459 320,460 320,461 321,462 320,463 321,463 322,462 323,463 326,463 327,462 331,462 333,460 335,462 334,463 333,463 334,463 335,462 338,462 339,463 338,464 339,463 340,464 341,464 343,466 343,468 345,470 344,471 344,473 345,474 344,475 344,476 345,477 345,479 344,480 343,480 344,480 345,481 344,482 343,482 342,483 341,482 341,481 340,480 339,480 340,480 341,481 340,482 341,482 342,483 341,484 339,484 338,483 338,482 337,481 338,482 338,483 337,484 336,484 334,486 333,485 331,487 330,487 329,486 329,485 329,486 328,487 327,486 326,487 325,487 324,488 310,488 309,487 309,486 307,488 306,488 303,485 302,486 301,486 300,485 301,484 300,484 299,483 300,484 300,485 299,486 298,485 297,485 296,484 297,483 297,482 296,481 295,482 293,480 293,479 293,480 292,481 290,479 291,478 291,477 292,476 293,476 293,475 291,477 290,476 290,475 291,474 291,473 292,472 291,473 290,472 289,473 287,471 287,470 283,470 281,468 282,467 283,467 282,467 281,468 280,467 280,466 282,464 283,465 282,464 283,463 282,462 283,461 284,461 285,460 284,461 283,461 282,460 282,459 283,458 284,458 285,457 286,457 287,458 287,459 287,458 286,457 285,457 284,458 283,458 282,457 282,456 283,455 283,454 282,453 283,452 284,452 284,448 286,446 287,447 286,446 286,445 285,444 285,443 286,442 287,443 286,442 286,440 288,438 289,439 287,437 287,436 288,435 289,436 292,436 293,437 292,436 293,435 295,435 293,435 292,434 292,431 293,430 293,429 294,428 293,429 292,428 292,427 293,426 293,419 294,418 294,417 295,416 294,415 294,413 295,412 295,411 294,410 294,409 295,408 295,407 294,406 295,405 295,402 294,401 295,400 294,401 293,400 292,401 291,401 289,403 288,402 289,403 289,404 288,405 287,404 286,404 284,402 285,401 286,401 287,400 286,401 285,400 284,400 285,401 284,402 283,402 284,402 285,403 284,404 283,404 282,405 281,405 282,406 281,407 280,407 278,409 277,408 276,408 275,409 274,408 273,409 272,409 271,410 270,409 270,411 269,412 268,411 268,410 266,412 265,411 265,410 266,409 266,408 266,409 265,410 264,410 263,409 263,410 264,410 265,411 264,412 261,412 260,411 260,410 260,411 261,412 261,413 260,414 259,414 258,413 258,414 257,415 256,414 254,414 253,413 254,412 256,412 257,411 256,412 253,412 253,413 252,414 251,414 251,415 250,416 249,416 248,415 249,416 248,417 246,417 245,416 244,417 243,417 242,416 243,417 243,418 242,419 241,418 242,419 242,421 243,422 243,424 244,425 243,426 242,426 242,427 243,427 244,428 244,430 243,431 242,431 241,432 242,431 243,431 244,432 243,433 244,433 246,435 245,436 244,436 245,437 245,438 246,439 245,440 247,442 246,443 245,443 243,441 243,442 244,442 246,444 246,443 247,442 248,442 249,443 248,444 249,445 248,446 245,446 244,447 245,447 246,446 248,446 249,445 248,444 249,443 250,443 252,445 250,447 251,448 250,449 249,449 248,448 249,449 249,450 250,450 251,451 251,452 251,451 250,450 250,449 251,448 252,448 253,449 253,451 254,452 252,454 250,454 249,455 248,455 249,455 250,454 251,454 252,455 251,456 252,455 252,454 253,453 254,453 255,454 254,455 254,456 256,458 256,459 257,460 256,461 256,462 257,463 256,464 257,465 257,467 258,468 257,469 256,469 257,470 256,471 256,472 256,471 257,470 257,469 258,468 259,468 260,469 259,470 260,471 259,472 260,472 260,469 259,468 259,464 258,463 258,461 257,460 257,459 256,458 256,456 255,455 255,453 254,452 254,451 253,450 253,446 252,445 252,442 251,441 247,441 246,440 246,435 245,434 245,428 244,427 244,422 243,421 243,419 244,418 246,418 247,417 250,417 251,416 254,416 255,415 258,415 259,414 260,414 261,413 266,413 267,412 269,412 270,411 272,411 273,410 275,410 276,409 278,409 279,408 281,408 282,407 284,407 285,406 289,406 290,405 292,405 293,404 294,405 294,406 293,407 293,422 292,423 292,433 291,434 289,434 288,435 287,435 286,436 286,440 285,441 285,444 284,445 284,447 283,448 283,450 282,451 282,454 281,455 281,457 280,458 280,464 281,465 280,466 280,471 282,473 282,474 283,475 285,475 285,473 286,472 287,473 287,474 288,475 288,476 289,477 289,478 291,480 291,481 295,485 296,485 297,486 299,486 300,487 303,487 304,488 312,488 313,489 317,489 318,488 327,488 328,487 332,487 333,486 338,486 339,485 341,485 342,484 343,484 346,481 346,472 345,471 345,467 340,462 339,462 338,461 336,461 335,460 328,460 327,461 324,461 323,462 322,462 321,461 321,453 320,452 320,439 319,438 318,438 317,437 316,437 315,436 315,424 314,423 314,397 315,396 316,396 317,395 319,395 320,394 321,394 322,393 325,393 326,392 328,392 329,391 330,391 331,390 332,390 333,389 334,389 335,388 337,388 338,387 339,387 340,386 342,386 344,384 344,378 345,377 345,350 344,349 344,340 343,339 343,334 344,333 346,333 347,334 360,334 361,333 367,333 368,332 370,332 371,331 372,331 374,329 375,329 376,328 377,328 379,326 380,326 382,324 383,324 386,321 386,320 387,319 388,319 389,318 389,317 392,314 392,313 393,312 393,311 395,309 395,308 397,306 397,305 399,303 399,300 401,298 401,297 402,296 402,294 405,291 406,291 407,292 409,292 410,293 418,293 419,292 421,292 422,291 423,291 425,289 426,289 426,288 429,285 429,284 430,283 430,274 429,273 429,270 428,269 428,267 427,266 427,264 426,263 426,259 425,258 425,256 424,255 424,253 423,252 423,250 421,248 417,248 416,249 414,249 413,250 411,250 410,251 409,251 408,252 406,252 405,253 400,253 399,252 399,251 390,242 385,242 384,243 384,248 385,249 385,251 386,252 386,253 387,254 387,255 388,256 388,258 390,260 390,262 391,263 391,264 392,265 392,271 393,272 392,273 392,279 391,280 391,281 390,282 390,284 389,285 389,286 388,287 388,288 387,289 387,290 386,291 386,293 385,294 385,295 383,297 383,298 380,301 380,303 373,310 373,311 371,313 369,313 365,317 364,317 363,318 361,318 360,319 350,319 349,318 347,318 345,316 344,316 342,314 341,314 339,312 339,308 338,307 338,303 337,302 337,299 336,298 336,295 335,294 335,291 334,290 334,287 333,286 333,281 332,280 332,277 331,276 331,274 332,273 344,273 345,272 346,272 347,271 348,271 350,269 350,268 352,266 352,265 353,264 353,260 354,259 354,257 352,257 351,258 350,258 349,259 348,259 347,260 338,260 337,259 334,259 333,258 332,258 331,257 330,257 329,256 327,256 325,254 325,253 324,252 324,250 323,249 323,247 322,246 322,244 321,243 321,241 320,240 320,239 319,238 319,234 318,233 318,231 317,230 317,229 316,228 316,226 315,225 315,223 316,222 320,222 321,221 321,220 322,219 322,216 323,215 323,213 324,212 324,210 325,209 325,206 326,205 326,200 327,199 327,198 328,197 328,194 329,193 329,192 330,191 330,189 331,188 331,185 329,185 328,186 327,186 326,187 325,187 323,189 322,189 318,193 316,193 312,197 311,197 309,199 308,199 307,200 305,198 305,196 304,195 304,194 303,193 303,192 302,191 302,190 301,189 301,188 300,187 300,186 299,185 299,182 298,181 298,180 296,178 296,177 295,176 295,174 293,172 293,169 292,168 292,167 290,165 290,164 289,163 289,161 290,160 292,160 293,159 296,159 297,158 298,158 300,156 301,156 303,154 304,154 312,146 312,145 313,144 313,142 314,141 314,140 316,138 316,136 317,135 317,133 318,132 318,127 319,126 319,120 321,118 322,118 323,119 325,119 326,118 327,118 328,117 329,117 331,115 332,115 338,109 338,108 339,107 339,106 340,105 340,103 341,102 341,101 342,100 342,98 343,97 343,84 342,83 342,81 341,80 341,79 340,78 340,77 339,76 339,74 336,71 336,70 332,66 331,66 330,65 329,65 327,63 326,63 325,62 323,62 322,61 321,61 320,60 320,52 318,50 319,49 319,47 318,46 318,44 317,43 317,42 314,39 314,38 313,37 313,36 309,32 308,32 306,30 306,29 305,29 303,27 302,27 301,26 299,26 298,25 296,25 295,24 293,24 292,23 289,23 288,22 278,22 277,23 273,23 272,24 271,24 270,25 269,25 268,26 266,26 265,27 264,27 262,29 260,29 259,28 259,27 252,20 251,20 249,18 248,18 244,14 242,14 241,13 239,13 238,12 237,12 236,11 233,11 232,10 230,10 229,9 Z" fill="black" />
</svg>