<?xml version="1.0" standalone="no"?>
<!DOCTYPE svg PUBLIC "-//W3C//DTD SVG 20010904//EN"
 "http://www.w3.org/TR/2001/REC-SVG-20010904/DTD/svg10.dtd">
<svg version="1.0" xmlns="http://www.w3.org/2000/svg"
 width="500.000000pt" height="500.000000pt" viewBox="0 0 500.000000 500.000000"
 preserveAspectRatio="xMidYMid meet">

<g transform="translate(0.000000,500.000000) scale(0.100000,-0.100000)"
fill="#000000" stroke="none">
<path d="M2089 4885 c-82 -22 -143 -58 -212 -126 -83 -82 -122 -161 -139 -277
l-12 -82 -53 -25 c-77 -35 -156 -115 -198 -198 -19 -38 -35 -79 -35 -91 0 -36
-13 -43 -70 -43 -159 0 -312 -109 -372 -266 -11 -29 -23 -85 -27 -126 l-6 -73
-65 -17 c-125 -31 -216 -107 -273 -229 -29 -60 -32 -76 -31 -157 1 -115 26
-184 96 -260 l50 -56 -16 -57 c-35 -125 -12 -217 72 -302 79 -78 146 -103 262
-98 54 3 99 11 123 23 22 10 42 14 47 9 10 -10 111 -353 165 -561 l38 -142
-40 -45 c-48 -55 -151 -251 -191 -366 -64 -183 -82 -342 -53 -476 13 -59 12
-61 -13 -98 -46 -68 -55 -141 -24 -198 14 -28 80 -57 155 -67 126 -18 211 -22
218 -12 3 6 9 49 12 96 5 75 10 91 35 122 31 40 33 50 16 88 -17 37 -78 65
-158 72 -38 3 -74 9 -82 14 -10 6 -13 41 -12 141 0 112 4 148 27 233 30 110
124 318 141 312 15 -5 51 -225 71 -426 9 -90 23 -180 31 -200 57 -138 233
-191 529 -161 69 7 127 11 129 9 2 -2 6 -53 9 -112 6 -107 6 -108 -18 -117
-24 -9 -24 -13 -27 -131 l-3 -122 -72 2 c-82 3 -128 -15 -143 -55 -14 -37 -12
-150 3 -162 6 -5 50 -18 97 -27 112 -23 251 -17 333 15 63 24 110 74 122 131
6 26 35 43 35 19 0 -22 19 -8 29 21 17 50 14 70 -35 214 -41 119 -49 135 -68
135 -21 0 -24 8 -39 112 -10 61 -14 115 -9 120 5 5 60 22 123 38 63 15 174 47
248 70 73 22 135 39 137 37 2 -1 -3 -70 -11 -153 -8 -82 -15 -150 -15 -152 0
-1 -10 -6 -23 -11 -20 -8 -29 -29 -60 -153 -31 -120 -35 -149 -27 -179 11 -41
40 -73 40 -46 0 37 22 23 49 -32 27 -52 37 -63 88 -87 51 -26 67 -28 162 -28
160 0 296 35 307 79 9 36 -14 138 -36 160 -18 17 -34 20 -113 21 l-92 0 -2 95
c-4 119 -8 138 -37 149 -22 8 -23 12 -30 206 -4 108 -3 200 1 205 4 4 67 30
140 59 72 28 137 58 144 66 15 18 18 280 6 416 l-8 87 88 -1 c111 -1 181 19
263 73 81 55 156 147 214 265 l47 95 32 -8 c87 -22 172 2 208 60 16 26 19 43
15 89 -6 57 -60 243 -78 265 -12 14 -52 8 -121 -18 -73 -29 -87 -25 -147 36
-37 39 -60 55 -74 53 -33 -5 -30 -40 10 -125 64 -135 58 -228 -22 -383 -105
-202 -244 -292 -381 -246 -78 26 -86 38 -117 182 -15 71 -34 151 -42 178 -26
91 -25 93 60 98 62 3 79 7 100 27 26 24 63 107 53 117 -3 3 -20 -2 -38 -11
-24 -13 -46 -16 -86 -11 -79 9 -161 43 -168 69 -4 12 -27 84 -51 159 -25 76
-42 142 -39 148 3 5 17 10 30 10 19 0 26 7 31 28 4 15 26 94 50 177 23 82 41
151 39 153 -2 2 -54 -30 -116 -72 -62 -42 -117 -75 -123 -73 -6 3 -17 22 -25
43 -8 22 -45 106 -83 189 -38 82 -66 155 -64 162 3 7 12 13 21 13 30 0 116 51
157 93 56 57 100 154 107 236 l6 65 50 15 c68 21 155 107 178 175 50 147 -19
317 -151 374 l-49 21 -11 67 c-27 163 -124 269 -282 310 -95 24 -205 6 -280
-47 -25 -17 -25 -17 -95 49 -75 71 -134 106 -218 128 -64 17 -176 17 -238 -1z
m244 -141 c52 -17 148 -98 172 -145 8 -15 15 -44 15 -63 0 -38 31 -130 54
-162 13 -18 15 -15 21 31 9 62 82 162 141 191 58 28 157 26 211 -5 96 -55 133
-159 99 -281 -10 -33 -14 -65 -10 -71 4 -7 28 -9 69 -4 52 5 70 3 102 -13 49
-26 75 -71 75 -131 0 -59 -23 -106 -65 -131 -38 -23 -71 -25 -150 -6 -46 11
-60 11 -63 2 -3 -7 5 -48 17 -91 34 -125 10 -220 -73 -285 -61 -49 -119 -60
-182 -36 -65 25 -77 43 -65 91 27 103 39 163 39 200 l0 40 -20 -25 c-11 -14
-20 -30 -20 -37 0 -6 -18 -34 -40 -62 -86 -109 -266 -157 -436 -116 -82 19
-199 88 -228 134 -27 41 -76 90 -76 74 0 -17 51 -136 77 -181 23 -38 25 -50
19 -105 -13 -111 -73 -184 -199 -242 -43 -20 -81 -43 -84 -52 -4 -10 11 -31
45 -62 56 -52 82 -101 82 -156 0 -34 -30 -106 -54 -130 -44 -44 -131 -65 -189
-46 l-35 12 13 43 c19 62 28 149 20 185 -7 31 -23 41 -29 19 -30 -105 -81
-169 -169 -214 -44 -23 -59 -25 -143 -22 -57 2 -95 -1 -97 -7 -2 -5 9 -40 25
-77 15 -37 28 -81 28 -97 0 -107 -103 -185 -223 -167 -51 8 -89 31 -122 76
-20 27 -25 46 -25 90 0 53 2 59 50 111 27 29 50 61 50 69 0 9 -23 27 -54 42
-120 59 -172 141 -164 258 3 36 13 80 22 98 29 57 90 108 153 127 55 18 63 18
153 2 52 -9 98 -13 102 -8 4 4 -6 40 -23 81 -53 126 -40 232 42 325 44 50 100
75 171 75 71 0 127 -21 153 -59 25 -35 115 -114 123 -107 3 3 -2 14 -11 24
-32 35 -48 95 -54 198 -5 85 -3 112 12 151 20 53 89 133 114 133 9 0 21 4 27
9 5 4 21 11 36 15 23 5 30 1 45 -21 47 -75 116 -143 146 -143 2 0 -9 26 -25
58 -37 74 -62 207 -56 297 6 87 44 170 104 225 102 94 220 118 357 74z m270
-1278 c52 -42 80 -56 136 -71 l44 -11 49 -119 c105 -253 138 -338 132 -344 -3
-3 -27 -19 -53 -36 -109 -69 -151 -98 -151 -106 0 -5 60 -9 133 -9 l133 0 39
-114 c22 -63 37 -118 33 -121 -3 -3 -26 -1 -52 6 -92 23 -198 -19 -251 -100
l-26 -39 -47 21 c-61 27 -152 27 -213 0 -76 -34 -113 -75 -168 -186 -94 -192
-181 -283 -268 -281 -24 1 -43 -2 -43 -6 0 -12 65 -68 98 -85 42 -21 100 -22
138 -2 16 9 54 36 84 61 124 103 119 101 251 98 154 -4 206 11 251 76 13 19
27 25 66 27 60 4 111 29 172 82 52 46 87 66 93 56 10 -17 68 -246 92 -366 34
-169 58 -396 49 -474 l-6 -62 -77 -32 c-528 -220 -1017 -349 -1276 -336 -121
6 -185 27 -236 78 -43 43 -51 74 -69 261 -21 219 -120 594 -257 972 -36 99
-69 188 -74 198 -6 11 -1 30 17 61 15 28 28 71 32 109 l7 62 45 17 c42 16 47
16 80 -1 19 -10 54 -23 78 -29 23 -7 42 -15 42 -20 0 -5 -18 -21 -40 -36 -22
-15 -37 -32 -34 -36 3 -5 1 -8 -4 -7 -6 2 -39 -19 -75 -46 l-65 -48 45 -127
c24 -69 53 -144 64 -167 10 -22 19 -48 19 -58 0 -9 7 -30 15 -46 9 -17 13 -30
10 -30 -4 0 -3 -6 2 -12 4 -7 8 -16 9 -20 1 -5 2 -9 4 -10 1 -2 3 -10 5 -18 9
-49 39 -140 45 -140 4 0 7 -13 8 -29 0 -17 5 -39 11 -50 6 -11 11 -29 11 -41
0 -14 4 -19 12 -14 7 5 9 2 6 -8 -6 -13 -2 -39 22 -143 22 -96 40 -219 49
-329 6 -66 14 -122 18 -125 4 -3 13 -15 19 -26 7 -11 19 -19 29 -17 9 2 14 -1
11 -6 -3 -5 20 -17 51 -27 98 -31 292 -11 602 61 20 4 22 7 10 15 -10 8 -9 9
8 4 12 -3 30 -2 40 4 10 5 41 14 68 19 28 6 64 16 80 23 17 7 35 13 42 15 7 1
26 9 42 17 17 8 48 18 71 22 22 4 38 11 35 15 -3 5 0 12 6 16 8 4 9 3 5 -4
-11 -18 8 -15 61 9 65 30 83 36 116 44 17 3 25 10 21 17 -4 6 -3 8 4 5 13 -9
44 2 37 13 -3 5 3 6 14 3 10 -2 37 5 61 17 l41 21 -2 112 c-1 62 -4 116 -7
122 -3 5 -7 25 -9 45 -5 64 -14 104 -21 94 -4 -5 -24 -20 -44 -34 -20 -13 -34
-29 -31 -34 3 -5 1 -6 -6 -2 -6 4 -26 -1 -44 -12 -116 -70 -302 -153 -415
-187 -44 -13 -59 -21 -50 -28 9 -6 5 -7 -11 -3 -13 3 -49 -2 -80 -11 -147 -41
-227 -55 -276 -48 -27 4 -58 8 -67 8 -9 1 -14 5 -12 9 3 4 -9 8 -26 8 -25 0
-33 6 -45 33 -8 17 -25 44 -39 59 -23 24 -106 152 -106 163 0 2 -11 28 -25 57
-47 100 -96 254 -147 453 -28 110 -55 202 -60 204 -7 2 -7 6 0 10 6 4 3 41
-10 106 -31 156 -33 148 48 170 142 38 235 148 249 292 6 59 4 84 -15 144 -12
39 -17 75 -13 78 79 54 142 134 170 217 14 42 18 45 42 39 61 -14 236 -16 291
-1 77 20 77 20 123 -18z m-1008 -856 c-3 -5 -12 -10 -18 -10 -7 0 -6 4 3 10
19 12 23 12 15 0z m113 -182 c7 -7 12 -27 12 -45 0 -26 -5 -36 -22 -43 -13 -5
-17 -9 -9 -9 8 -1 11 -4 8 -8 -4 -3 2 -12 13 -20 22 -16 26 -43 8 -61 -15 -15
-72 -16 -63 -2 3 6 -4 10 -15 10 -12 0 -32 8 -45 18 -23 18 -23 19 -7 56 10
21 21 38 25 37 21 -3 28 0 25 12 -1 6 1 24 5 40 8 29 42 38 65 15z m1317
-1038 c3 -5 1 -10 -4 -10 -6 0 -11 5 -11 10 0 6 2 10 4 10 3 0 8 -4 11 -10z
m-1175 -244 c0 -2 -11 -6 -25 -8 -14 -3 -25 -1 -25 3 0 5 11 9 25 9 14 0 25
-2 25 -4z m413 -13 c-7 -2 -19 -2 -25 0 -7 3 -2 5 12 5 14 0 19 -2 13 -5z"/>
<path d="M2150 2695 c-201 -13 -375 -24 -387 -24 -13 -1 -23 -5 -23 -11 0 -11
369 -290 384 -290 17 1 421 325 419 335 -3 15 1 15 -393 -10z"/>
</g>
</svg>
